<mxfile host="Electron" modified="2023-08-22T13:25:39.245Z" agent="Mozilla/5.0 (Windows NT 10.0; Win64; x64) AppleWebKit/537.36 (KHTML, like Gecko) draw.io/21.6.8 Chrome/114.0.5735.289 Electron/25.5.0 Safari/537.36" etag="g20J03ltBAXEjZzadm_W" version="21.6.8" type="device">
  <diagram name="Page-1" id="Zk1eqEwGGrdNvx0kWOaQ">
    <mxGraphModel dx="1674" dy="836" grid="1" gridSize="10" guides="1" tooltips="1" connect="1" arrows="1" fold="1" page="1" pageScale="1" pageWidth="827" pageHeight="1169" math="0" shadow="0">
      <root>
        <mxCell id="0" />
        <mxCell id="1" parent="0" />
        <mxCell id="p5MPEPQXZV3MhST2ZcYs-5" style="edgeStyle=orthogonalEdgeStyle;rounded=0;orthogonalLoop=1;jettySize=auto;html=1;exitX=1;exitY=0.5;exitDx=0;exitDy=0;" parent="1" source="p5MPEPQXZV3MhST2ZcYs-1" target="p5MPEPQXZV3MhST2ZcYs-6" edge="1">
          <mxGeometry relative="1" as="geometry">
            <mxPoint x="220" y="195" as="targetPoint" />
          </mxGeometry>
        </mxCell>
        <mxCell id="p5MPEPQXZV3MhST2ZcYs-1" value="Start" style="ellipse;whiteSpace=wrap;html=1;labelBackgroundColor=none;fillColor=#60a917;fontColor=#ffffff;strokeColor=#2D7600;" parent="1" vertex="1">
          <mxGeometry x="100" y="175" width="40" height="40" as="geometry" />
        </mxCell>
        <mxCell id="p5MPEPQXZV3MhST2ZcYs-14" value="" style="edgeStyle=orthogonalEdgeStyle;rounded=0;orthogonalLoop=1;jettySize=auto;html=1;entryX=0;entryY=0.5;entryDx=0;entryDy=0;" parent="1" source="p5MPEPQXZV3MhST2ZcYs-6" target="RuTbsdzEKWZQanhrffVp-1" edge="1">
          <mxGeometry relative="1" as="geometry">
            <mxPoint x="362.5" y="195" as="targetPoint" />
          </mxGeometry>
        </mxCell>
        <mxCell id="p5MPEPQXZV3MhST2ZcYs-6" value="User navigates to website" style="rounded=0;whiteSpace=wrap;html=1;" parent="1" vertex="1">
          <mxGeometry x="200" y="170" width="90" height="50" as="geometry" />
        </mxCell>
        <mxCell id="RuTbsdzEKWZQanhrffVp-4" style="edgeStyle=orthogonalEdgeStyle;rounded=0;orthogonalLoop=1;jettySize=auto;html=1;exitX=0.5;exitY=0;exitDx=0;exitDy=0;entryX=0.5;entryY=1;entryDx=0;entryDy=0;" edge="1" parent="1" source="p5MPEPQXZV3MhST2ZcYs-24" target="p5MPEPQXZV3MhST2ZcYs-35">
          <mxGeometry relative="1" as="geometry" />
        </mxCell>
        <mxCell id="RuTbsdzEKWZQanhrffVp-11" style="edgeStyle=orthogonalEdgeStyle;rounded=0;orthogonalLoop=1;jettySize=auto;html=1;exitX=0.5;exitY=1;exitDx=0;exitDy=0;" edge="1" parent="1" source="p5MPEPQXZV3MhST2ZcYs-24" target="p5MPEPQXZV3MhST2ZcYs-40">
          <mxGeometry relative="1" as="geometry" />
        </mxCell>
        <mxCell id="p5MPEPQXZV3MhST2ZcYs-24" value="time works?" style="rhombus;whiteSpace=wrap;html=1;rounded=0;" parent="1" vertex="1">
          <mxGeometry x="575" y="155" width="80" height="80" as="geometry" />
        </mxCell>
        <mxCell id="p5MPEPQXZV3MhST2ZcYs-26" value="end" style="ellipse;whiteSpace=wrap;html=1;aspect=fixed;fillColor=#a20025;fontColor=#ffffff;strokeColor=#6F0000;" parent="1" vertex="1">
          <mxGeometry x="700" y="47.5" width="40" height="40" as="geometry" />
        </mxCell>
        <mxCell id="p5MPEPQXZV3MhST2ZcYs-28" value="no" style="text;html=1;strokeColor=none;fillColor=none;align=center;verticalAlign=middle;whiteSpace=wrap;rounded=0;" parent="1" vertex="1">
          <mxGeometry x="575" y="110" width="37.5" height="20" as="geometry" />
        </mxCell>
        <mxCell id="RuTbsdzEKWZQanhrffVp-6" style="edgeStyle=orthogonalEdgeStyle;rounded=0;orthogonalLoop=1;jettySize=auto;html=1;exitX=1;exitY=0.5;exitDx=0;exitDy=0;entryX=0;entryY=0.5;entryDx=0;entryDy=0;" edge="1" parent="1" source="p5MPEPQXZV3MhST2ZcYs-35" target="p5MPEPQXZV3MhST2ZcYs-26">
          <mxGeometry relative="1" as="geometry" />
        </mxCell>
        <mxCell id="p5MPEPQXZV3MhST2ZcYs-35" value="cancel order" style="rounded=0;whiteSpace=wrap;html=1;" parent="1" vertex="1">
          <mxGeometry x="572.5" y="50" width="85" height="35" as="geometry" />
        </mxCell>
        <mxCell id="p5MPEPQXZV3MhST2ZcYs-57" style="edgeStyle=orthogonalEdgeStyle;rounded=0;orthogonalLoop=1;jettySize=auto;html=1;entryX=0.5;entryY=0;entryDx=0;entryDy=0;" parent="1" source="p5MPEPQXZV3MhST2ZcYs-40" target="p5MPEPQXZV3MhST2ZcYs-56" edge="1">
          <mxGeometry relative="1" as="geometry" />
        </mxCell>
        <mxCell id="p5MPEPQXZV3MhST2ZcYs-40" value="requires clubs?" style="rhombus;whiteSpace=wrap;html=1;" parent="1" vertex="1">
          <mxGeometry x="575" y="360" width="80" height="80" as="geometry" />
        </mxCell>
        <mxCell id="p5MPEPQXZV3MhST2ZcYs-44" value="yes" style="text;html=1;strokeColor=none;fillColor=none;align=center;verticalAlign=middle;whiteSpace=wrap;rounded=0;" parent="1" vertex="1">
          <mxGeometry x="480" y="410" width="60" height="30" as="geometry" />
        </mxCell>
        <mxCell id="p5MPEPQXZV3MhST2ZcYs-45" value="no" style="text;html=1;strokeColor=none;fillColor=none;align=center;verticalAlign=middle;whiteSpace=wrap;rounded=0;" parent="1" vertex="1">
          <mxGeometry x="612.5" y="490" width="60" height="30" as="geometry" />
        </mxCell>
        <mxCell id="p5MPEPQXZV3MhST2ZcYs-64" style="edgeStyle=orthogonalEdgeStyle;rounded=0;orthogonalLoop=1;jettySize=auto;html=1;exitX=0.5;exitY=1;exitDx=0;exitDy=0;entryX=0;entryY=0.5;entryDx=0;entryDy=0;" parent="1" source="p5MPEPQXZV3MhST2ZcYs-53" target="p5MPEPQXZV3MhST2ZcYs-56" edge="1">
          <mxGeometry relative="1" as="geometry" />
        </mxCell>
        <mxCell id="p5MPEPQXZV3MhST2ZcYs-53" value="show available clubs" style="rounded=0;whiteSpace=wrap;html=1;" parent="1" vertex="1">
          <mxGeometry x="420" y="490" width="120" height="60" as="geometry" />
        </mxCell>
        <mxCell id="p5MPEPQXZV3MhST2ZcYs-67" style="edgeStyle=orthogonalEdgeStyle;rounded=0;orthogonalLoop=1;jettySize=auto;html=1;exitX=0.5;exitY=1;exitDx=0;exitDy=0;" parent="1" source="p5MPEPQXZV3MhST2ZcYs-56" target="p5MPEPQXZV3MhST2ZcYs-66" edge="1">
          <mxGeometry relative="1" as="geometry" />
        </mxCell>
        <mxCell id="p5MPEPQXZV3MhST2ZcYs-56" value="user enters contact information" style="rounded=0;whiteSpace=wrap;html=1;" parent="1" vertex="1">
          <mxGeometry x="555" y="585" width="120" height="60" as="geometry" />
        </mxCell>
        <mxCell id="p5MPEPQXZV3MhST2ZcYs-65" value="clubs selected" style="text;html=1;strokeColor=none;fillColor=none;align=center;verticalAlign=middle;whiteSpace=wrap;rounded=0;" parent="1" vertex="1">
          <mxGeometry x="425" y="585" width="60" height="30" as="geometry" />
        </mxCell>
        <mxCell id="p5MPEPQXZV3MhST2ZcYs-70" value="" style="edgeStyle=orthogonalEdgeStyle;rounded=0;orthogonalLoop=1;jettySize=auto;html=1;" parent="1" source="p5MPEPQXZV3MhST2ZcYs-66" target="p5MPEPQXZV3MhST2ZcYs-69" edge="1">
          <mxGeometry relative="1" as="geometry" />
        </mxCell>
        <mxCell id="p5MPEPQXZV3MhST2ZcYs-79" style="edgeStyle=orthogonalEdgeStyle;rounded=0;orthogonalLoop=1;jettySize=auto;html=1;exitX=0.5;exitY=1;exitDx=0;exitDy=0;entryX=1;entryY=0.5;entryDx=0;entryDy=0;" parent="1" source="p5MPEPQXZV3MhST2ZcYs-66" target="p5MPEPQXZV3MhST2ZcYs-77" edge="1">
          <mxGeometry relative="1" as="geometry" />
        </mxCell>
        <mxCell id="p5MPEPQXZV3MhST2ZcYs-66" value="pay now?" style="rhombus;whiteSpace=wrap;html=1;" parent="1" vertex="1">
          <mxGeometry x="575" y="680" width="80" height="80" as="geometry" />
        </mxCell>
        <mxCell id="p5MPEPQXZV3MhST2ZcYs-74" style="edgeStyle=orthogonalEdgeStyle;rounded=0;orthogonalLoop=1;jettySize=auto;html=1;exitX=0;exitY=0.5;exitDx=0;exitDy=0;entryX=1;entryY=0.5;entryDx=0;entryDy=0;" parent="1" source="p5MPEPQXZV3MhST2ZcYs-69" target="p5MPEPQXZV3MhST2ZcYs-71" edge="1">
          <mxGeometry relative="1" as="geometry" />
        </mxCell>
        <mxCell id="p5MPEPQXZV3MhST2ZcYs-69" value="send confirmation email" style="whiteSpace=wrap;html=1;" parent="1" vertex="1">
          <mxGeometry x="340" y="690" width="120" height="60" as="geometry" />
        </mxCell>
        <mxCell id="p5MPEPQXZV3MhST2ZcYs-71" value="end" style="ellipse;whiteSpace=wrap;html=1;fillColor=#a20025;fontColor=#ffffff;strokeColor=#6F0000;" parent="1" vertex="1">
          <mxGeometry x="220" y="700" width="40" height="40" as="geometry" />
        </mxCell>
        <mxCell id="p5MPEPQXZV3MhST2ZcYs-73" value="" style="endArrow=classic;html=1;rounded=0;entryX=0.5;entryY=0;entryDx=0;entryDy=0;exitX=0.5;exitY=1;exitDx=0;exitDy=0;" parent="1" source="p5MPEPQXZV3MhST2ZcYs-40" target="p5MPEPQXZV3MhST2ZcYs-53" edge="1">
          <mxGeometry width="50" height="50" relative="1" as="geometry">
            <mxPoint x="390" y="650" as="sourcePoint" />
            <mxPoint x="440" y="600" as="targetPoint" />
            <Array as="points">
              <mxPoint x="480" y="440" />
            </Array>
          </mxGeometry>
        </mxCell>
        <mxCell id="p5MPEPQXZV3MhST2ZcYs-75" value="no" style="text;html=1;strokeColor=none;fillColor=none;align=center;verticalAlign=middle;whiteSpace=wrap;rounded=0;" parent="1" vertex="1">
          <mxGeometry x="490" y="690" width="60" height="30" as="geometry" />
        </mxCell>
        <mxCell id="p5MPEPQXZV3MhST2ZcYs-81" style="edgeStyle=orthogonalEdgeStyle;rounded=0;orthogonalLoop=1;jettySize=auto;html=1;exitX=0;exitY=0.5;exitDx=0;exitDy=0;entryX=0.5;entryY=1;entryDx=0;entryDy=0;" parent="1" source="p5MPEPQXZV3MhST2ZcYs-77" target="p5MPEPQXZV3MhST2ZcYs-69" edge="1">
          <mxGeometry relative="1" as="geometry" />
        </mxCell>
        <mxCell id="p5MPEPQXZV3MhST2ZcYs-77" value="enter payment details" style="whiteSpace=wrap;html=1;" parent="1" vertex="1">
          <mxGeometry x="435" y="810" width="120" height="60" as="geometry" />
        </mxCell>
        <mxCell id="p5MPEPQXZV3MhST2ZcYs-80" value="yes" style="text;html=1;strokeColor=none;fillColor=none;align=center;verticalAlign=middle;whiteSpace=wrap;rounded=0;" parent="1" vertex="1">
          <mxGeometry x="615" y="790" width="60" height="30" as="geometry" />
        </mxCell>
        <mxCell id="RuTbsdzEKWZQanhrffVp-5" style="edgeStyle=orthogonalEdgeStyle;rounded=0;orthogonalLoop=1;jettySize=auto;html=1;exitX=1;exitY=0.5;exitDx=0;exitDy=0;" edge="1" parent="1" source="RuTbsdzEKWZQanhrffVp-1" target="p5MPEPQXZV3MhST2ZcYs-24">
          <mxGeometry relative="1" as="geometry" />
        </mxCell>
        <mxCell id="RuTbsdzEKWZQanhrffVp-1" value="Show available slots" style="whiteSpace=wrap;html=1;rounded=0;" vertex="1" parent="1">
          <mxGeometry x="370" y="172.5" width="115" height="45" as="geometry" />
        </mxCell>
        <mxCell id="RuTbsdzEKWZQanhrffVp-12" value="yes" style="text;html=1;strokeColor=none;fillColor=none;align=center;verticalAlign=middle;whiteSpace=wrap;rounded=0;" vertex="1" parent="1">
          <mxGeometry x="615" y="270" width="60" height="30" as="geometry" />
        </mxCell>
      </root>
    </mxGraphModel>
  </diagram>
</mxfile>
